# xmcd CD database file
#
# Track frame offsets:
#	150
#	12814
#	26869
#	53181
#	66483
#	78847
#	92664
#	107979
#	124476
#	141643
#	155517
#	179301
#	195677
#	218246
#	235561
#	253623
#	273170
#	289296
#	306063
#	317083
#
# Disc length: 4425 seconds
#
# Revision: 2
# Processed by: cddbd v1.4b42PL1 Copyright (c) Steve Scherf et al.
# Submitted via: CDex 1.40Beta4
#
DISCID=29114714
DTITLE=Legendary Blues Band - Z.Z. Hill - Red hot'n blue
DYEAR=1900
DGENRE=Blues
TTITLE0=Money
TTITLE1=Crazy 'bout That Thing
TTITLE2=I Almost Lost My Mind
TTITLE3=Streamlined Baby
TTITLE4=Do The Get Down
TTITLE5=Loverboy
TTITLE6=Come Back Baby
TTITLE7=How Long
TTITLE8=High Heel Sneakers
TTITLE9=Blues For Big Nate
TTITLE10=Down Home Blues
TTITLE11=Cheating In The Next Room
TTITLE12=Everybody Knows About My Good Thing
TTITLE13=Love Me
TTITLE14=That Means So Much To Me
TTITLE15=When Can We Do This Again
TTITLE16=Right Arm For Your Love
TTITLE17=When It Rains It Pours
TTITLE18=Woman Don't Go Astray
TTITLE19=Givin' It Up For Your Love
EXTD=ID3G:   0
EXTT0=
EXTT1=
EXTT2=
EXTT3=
EXTT4=
EXTT5=
EXTT6=
EXTT7=
EXTT8=
EXTT9=
EXTT10=
EXTT11=
EXTT12=
EXTT13=
EXTT14=
EXTT15=
EXTT16=
EXTT17=
EXTT18=
EXTT19=
PLAYORDER=
